#!OML:ASF I:\salsa\salsa 7_09\Patient 1\Session 1\dancerfemale.ASF
:FULLY-SPECIFIED
:DEGREES
1638
root 10.0538 15.7956 -3.7397 -123.059 255.05 126.559
lowerback 9.88829 4.44987 6.68132
upperback -6.64348 7.10408 1.02826
thorax -12.1484 2.83686 -3.985
lowerneck -5.87668 4.1244 -3.65201
upperneck 7.75216 5.19645 7.72167
head 3.26595 2.77074 3.47186
rclavicle -1.03219e-013 -6.36111e-015
rhumerus -36.4727 28.1333 -103.009
rradius 112.005
rwrist -9.36623
rhand 14.0068 48.4392
rfingers 7.12502
rthumb 38.916 22.8951
lclavicle -1.03219e-013 -6.36111e-015
lhumerus 5.8371 7.7784 38.2884
lradius 64.9373
lwrist 57.656
lhand 24.2494 54.5615
lfingers 7.12502
lthumb 48.4711 -1003.45
rfemur -3.15668 -13.0519 32.5753
rtibia 16.4012
rfoot -19.1132 17.4666
rtoes -4.2043
lfemur -46.4365 5.83066 -13.3498
ltibia 80.4291
lfoot -8.69233 8.55681
ltoes -20.7138
1639
root 9.78757 15.7797 -3.69103 -128.458 254.532 132.277
lowerback 9.70501 4.64343 6.49254
upperback -6.76 7.31114 0.865849
thorax -12.1469 2.94283 -4.08163
lowerneck -5.83874 3.99277 -3.52464
upperneck 7.86236 5.06185 7.03381
head 3.32166 2.68209 3.20743
rclavicle -1.6201e-014 1.19271e-014
rhumerus -35.8823 29.1323 -102.816
rradius 111.525
rwrist -8.77679
rhand 14.0148 47.9659
rfingers 7.12502
rthumb 38.9235 22.424
lclavicle -1.6201e-014 1.19271e-014
lhumerus 5.08087 6.47549 37.5536
lradius 66.0262
lwrist 58.816
lhand 25.2186 54.8267
lfingers 7.12502
lthumb 49.3618 -1003.62
rfemur -2.34553 -11.5356 32.2677
rtibia 16.5925
rfoot -20.4772 13.692
rtoes -6.13983
lfemur -47.4401 6.05888 -13.2833
ltibia 75.5468
lfoot -11.4151 7.55592
ltoes -22.8669
1640
root 9.50694 15.7654 -3.62571 -133.803 253.832 137.906
lowerback 9.5798 4.81606 6.40559
upperback -6.9126 7.51072 0.688028
thorax -12.2098 3.03089 -4.25659
lowerneck -6.00961 3.88297 -3.54065
upperneck 8.24771 4.9504 6.50623
head 3.50533 2.60933 3.04526
rclavicle -3.58806e-014 -2.38542e-014
rhumerus -35.3202 30.0233 -102.546
rradius 110.984
rwrist -7.63706
rhand 14.4634 47.729
rfingers 7.12502
rthumb 39.3463 22.309
lclavicle -3.58806e-014 -2.38542e-014
lhumerus 4.13382 5.02107 36.7406
lradius 67.2018
lwrist 60.1999
lhand 26.1554 54.8034
lfingers 7.12502
lthumb 50.2197 -1004.09
rfemur -1.04378 -10.1066 31.9542
rtibia 16.0732
rfoot -21.4038 9.73456
rtoes -8.89958
lfemur -48.1906 6.17498 -13.5336
ltibia 70.2312
lfoot -13.2851 6.45572
ltoes -24.0168
1641
root 9.21164 15.7525 -3.54574 -138.952 253.023 143.32
lowerback 9.29835 4.96309 6.37071
upperback -6.96845 7.66105 0.472598
thorax -12.0578 3.10453 -4.46736
lowerneck -6.22345 3.85717 -3.43506
upperneck 8.5629 4.96564 5.78645
head 3.67269 2.59352 2.79872
rclavicle -2.17172e-014 -2.62396e-014
rhumerus -34.5352 30.9931 -102.281
rradius 110.281
rwrist -6.14323
rhand 14.6901 47.6511
rfingers 7.12502
rthumb 39.5599 22.2938
lclavicle -2.17172e-014 -2.62396e-014
lhumerus 3.03766 3.82152 35.8072
lradius 68.4495
lwrist 61.7876
lhand 27.245 54.6627
lfingers 7.12502
lthumb 51.2139 -1004.78
rfemur 0.701788 -8.79011 31.5767
rtibia 14.8585
rfoot -21.8337 5.95715
rtoes -12.2846
lfemur -48.641 6.27559 -14.1615
ltibia 64.7065
lfoot -15.2624 7.59373
ltoes -27.2238
1642
root 8.89943 15.7589 -3.45235 -143.539 252.259 148.181
lowerback 8.92921 5.01438 6.38495
upperback -7.00395 7.68005 0.255204
thorax -11.8371 3.11586 -4.67211
lowerneck -6.47604 4.05761 -3.55068
upperneck 8.90398 5.3043 5.1595
head 3.835 2.73217 2.64114
rclavicle -2.70347e-014 -2.38542e-014
rhumerus -33.7082 32.4926 -102.343
rradius 109.453
rwrist -4.82651
rhand 14.1448 47.3266
rfingers 7.12502
rthumb 39.0461 21.8198
lclavicle -2.70347e-014 -2.38542e-014
lhumerus 1.36001 2.98128 34.3753
lradius 69.5999
lwrist 63.6678
lhand 28.7201 55.0012
lfingers 7.12502
lthumb 52.5526 -1005.23
rfemur 2.82955 -7.95807 31.0677
rtibia 12.9803
rfoot -21.2092 2.86389
rtoes -13.5359
lfemur -48.9088 6.67536 -15.1969
ltibia 59.3203
lfoot -16.1966 9.63642
ltoes -27.9587
